<svg xmlns="http://www.w3.org/2000/svg" viewBox="0 0 100 100"><defs><style>.cls-1{fill:#f44336;}.cls-2{fill:#fff;}</style></defs><title>Asset 2</title><g id="Layer_2" data-name="Layer 2"><g id="Content"><circle class="cls-1" cx="50" cy="50" r="50"/><path class="cls-2" d="M68.14,56.4q-5,.13-10.15.65-1.2,4.45-2.05,8.56T54.4,73q-.42,1.71-1.07,2a4.14,4.14,0,0,1-2.53-.52c-1.08-.46-2.11-.9-3.08-1.32s-2.09-1-3.34-1.67A4.26,4.26,0,0,1,41.64,67q.17-1.63.34-3.77t.6-4.71c-1.49.17-3,.36-4.41.56s-2.84.41-4.15.64a16.72,16.72,0,0,1-1.71.21A4.08,4.08,0,0,1,31,59.78a4.2,4.2,0,0,1-1.28-.6,12.84,12.84,0,0,1-1.41-1.11,27.33,27.33,0,0,1-2.87-3.47,22.61,22.61,0,0,1-2.27-3.81q-.86-1.62.3-2.4a6.81,6.81,0,0,1,2.7-1q3.59-.68,8.56-1.24t10.45-.82q1.2-4.79,2.31-8.94T49.78,29a4.86,4.86,0,0,1,1.84-2.27,3.06,3.06,0,0,1,3-.13A29.39,29.39,0,0,1,59,28.84a16.83,16.83,0,0,1,3.59,2.78,5.68,5.68,0,0,1,1.88,2.53A4.57,4.57,0,0,1,63.9,37c-.34,1.14-.74,2.32-1.2,3.55s-.88,2.5-1.28,3.81q6.59-.17,11,0a6.2,6.2,0,0,1,5.39,3,16.84,16.84,0,0,1,1.63,3c.34.89.72,1.81,1.11,2.78q.68,1.71.09,2.31a3.66,3.66,0,0,1-2.48.6Q73.14,56.28,68.14,56.4Z"/></g></g></svg>