<svg xmlns="http://www.w3.org/2000/svg" viewBox="0 0 350.48 196"><defs><style>.cls-1{fill:#fff;}</style></defs><title>Asset 4</title><g id="Layer_2" data-name="Layer 2"><g id="Nav"><path d="M18.62,140.84q.32,4.08.63,8a2.55,2.55,0,0,1-.51,1.71,3.47,3.47,0,0,1-2.17.62q-2,.05-3.52.2a10.21,10.21,0,0,1-3-.17,4.3,4.3,0,0,1-2.31-1.31,6.16,6.16,0,0,1-1.17-2.76q-.28-1.48-.83-4.3T4.5,136.45q-.66-3.57-1.36-7.69T1.8,120.51q-.63-4.14-1.1-8.07t-.64-7.12a31.93,31.93,0,0,1,.08-5.39,5,5,0,0,1,1-2.94Q4.88,93.84,9,90.65a48,48,0,0,1,8.39-5.29,26.56,26.56,0,0,1,8.49-2.6A13.37,13.37,0,0,1,34,84.34a45.11,45.11,0,0,1,6,4.35,25.12,25.12,0,0,1,5.17,6.44q2.22,4.35,1.49,7.76a26,26,0,0,1-5.43,11,77.87,77.87,0,0,1-11.1,11.25q2.1,1.33,4.57,2.78t5,2.87q2.57,1.42,5.07,2.71t4.61,2.17q1.71.77,1.77,1.5a2.77,2.77,0,0,1-.75,1.78,5.66,5.66,0,0,1-1.77,1.74q-.81.42-2,1a9.7,9.7,0,0,1-3.27,1.2,10.89,10.89,0,0,1-4.7-.4q-1.9-.64-4.44-1.7t-5.32-2.42q-2.78-1.36-5.6-2.89a55.42,55.42,0,0,1-5.25-3.22Q18.3,136.76,18.62,140.84Zm-1.23-30.49q.12,4.29.12,9.2a40.69,40.69,0,0,0,7.31-6.32,39.66,39.66,0,0,0,4.81-6.45,18.53,18.53,0,0,0,2.28-5.54q.48-2.45-.26-3.5-1.38-1.69-5.44-.52A23.52,23.52,0,0,0,21.94,99a22.11,22.11,0,0,0-4.57,3.26Q17.27,106.06,17.39,110.35Z"/><path d="M155,163.8a14.84,14.84,0,0,1,3.7,4.44,9.19,9.19,0,0,1,.69,5.5,14.71,14.71,0,0,1-2.56,5.32,28.62,28.62,0,0,1-3.36,4.25,47,47,0,0,1-4.41,4.1q-2.38,2-4.86,3.67t-4.78,3.05a22.31,22.31,0,0,1-2.1,1.13,8.25,8.25,0,0,1-1.77.58,7.44,7.44,0,0,1-1.78.14,11.91,11.91,0,0,1-2.18-.34,26.14,26.14,0,0,1-4.16-.85q-1.84-.55-4.36-1.54-1-.61-1.75-1a5.37,5.37,0,0,1-1.29-1,5.12,5.12,0,0,1-.91-1.34,8.58,8.58,0,0,1-.61-2.13q-1-4.32-2-9.88t-2-11.56q-1-6-2.2-12T109.66,143a43.53,43.53,0,0,1,5.28-4.43,70.08,70.08,0,0,1,6.57-4.21,63.14,63.14,0,0,1,7.22-3.5,46,46,0,0,1,7.27-2.32,26.8,26.8,0,0,1,6.69-.7,12.5,12.5,0,0,1,5.53,1.35,26.85,26.85,0,0,1,5.51,4,21.85,21.85,0,0,1,4.22,5.71,10.79,10.79,0,0,1,1.08,3.86,14.2,14.2,0,0,1-.24,3.94,16.56,16.56,0,0,1-1.28,3.83,30.57,30.57,0,0,1-2,3.6l-2.65,3.48a28.59,28.59,0,0,1-3.35,3.61A12.1,12.1,0,0,1,155,163.8Zm-18.16-7.95a40.09,40.09,0,0,0,4.69-5.71,17.29,17.29,0,0,0,2.36-4.85,4.29,4.29,0,0,0,0-3.16,2.3,2.3,0,0,0-1.9-.91,8.63,8.63,0,0,0-3.3.58,22.87,22.87,0,0,0-4.28,2.09,36,36,0,0,0-4.91,3.65,63.08,63.08,0,0,0,.13,6.67q.24,3.43.33,7.35A43.93,43.93,0,0,0,136.81,155.85Zm-5.74,23.75q.18,2.82.49,5.71a44.43,44.43,0,0,0,5.91-4.05,31,31,0,0,0,4.25-4.13,12.45,12.45,0,0,0,2.25-3.7,3.34,3.34,0,0,0,0-2.79,3.22,3.22,0,0,0-1.73-.84,8.23,8.23,0,0,0-3,0,16.51,16.51,0,0,0-4,1.25,30.39,30.39,0,0,0-4.67,2.65Q130.88,176.78,131.06,179.59Z"/><path d="M189.6,177q-4.52,1.75-8.59,3.37a14,14,0,0,1-2.51,1,6.58,6.58,0,0,1-1.85.23,5.39,5.39,0,0,1-1.39-.22,9.45,9.45,0,0,1-1.14-.44,24,24,0,0,1-2.48-1.18q-1.13-.63-3-1.59a7.18,7.18,0,0,1-2.24-1.88,4.86,4.86,0,0,1-.91-2.93q-.3-2.78-.5-6.64t-.31-8.35q-.1-4.49-.13-9.33t.1-9.66q.13-4.83.35-9.31t.55-8.25q.33-2.17,1.35-2.76a5.8,5.8,0,0,1,3.32-.36,39.3,39.3,0,0,1,5,.71,25,25,0,0,1,4.86,1.47,7.27,7.27,0,0,1,2.72,1.9,3.94,3.94,0,0,1,.35,2.85q-.63,4.48-1.13,9.82t-1,11q-.45,5.62-.77,11.17t-.55,10.62q3.13-1.16,5.9-2t6-1.63a7.51,7.51,0,0,1,3-.31,4.09,4.09,0,0,1,2.18,1.38,14.65,14.65,0,0,1,1.85,2.32,17.47,17.47,0,0,1,1.27,2.35,3.14,3.14,0,0,1,.61,1.92q-.16.54-2.26,1.36Z"/><path class="cls-1" d="M94.64,64.07C79.14,22,50.45-6.17,30.54,1.16s-23.48,47.38-8,89.45,44.19,70.24,64.1,62.91S110.14,106.14,94.64,64.07Zm-9.4,85.6c-17.82,6.56-43.56-18.8-57.5-56.64S17,19.2,34.77,12.64s43.56,18.8,57.5,56.64S103.06,143.11,85.24,149.67Z"/><path class="cls-1" d="M350.25,119.2c-4.19-27.49-65.61-40.93-137.18-30s-126.19,42-122,69.53,65.61,40.93,137.18,30S354.44,146.68,350.25,119.2ZM222.89,185.76c-66.61,10.16-123.76-2.23-127.64-27.68s47-54.3,113.58-64.46,123.76,2.23,127.64,27.68S289.5,175.6,222.89,185.76Z"/><path d="M71.05,79.45a5,5,0,0,1,.48,2.9q-.34,3.36-.67,7.66t-.57,9.06q-.24,4.76-.4,9.72t-.29,9.7q-.13,4.74-.19,9t0,7.5a2.6,2.6,0,0,1-.63,1.74,3.91,3.91,0,0,1-2.43.42q-1.93-.12-3.67-.28a17.72,17.72,0,0,1-3.38-.63,4.53,4.53,0,0,1-2.5-1.35,5.1,5.1,0,0,1-.89-2.78q-.36-2.48-.69-6.47t-.61-8.75q-.27-4.77-.48-10.06t-.32-10.38q-.12-5.09-.1-9.66t.12-8A3.74,3.74,0,0,1,55,75.88a5.28,5.28,0,0,1,3.3-.49,31.16,31.16,0,0,1,5,.73,30.35,30.35,0,0,1,4.91,1.49A6.33,6.33,0,0,1,71.05,79.45Z"/><path d="M110,81.7q.45-9.32,1.13-17.23a3.59,3.59,0,0,1,1.27-2.85,5.73,5.73,0,0,1,3.43-.55l2,.15a10.81,10.81,0,0,1,1.76.26q.87.21,1.88.53t2.34.88q2.27.9,2.76,2.15a6.75,6.75,0,0,1,.25,3.19q-.67,5.51-1.23,12.45t-1,14.09q-.49,7.15-.89,13.95T123,120.66q.06,2.75-3.89,2.6a47.38,47.38,0,0,1-7-.63A7.57,7.57,0,0,1,107,119.2q-1.38-2-2.93-4.71t-3.21-5.86q-1.66-3.15-3.38-6.59t-3.3-6.93q0,4.51,0,9t0,8.63q0,4.11,0,7.64t.13,6.12a2.15,2.15,0,0,1-.64,1.68,4.13,4.13,0,0,1-2.5.27l-3.58-.26a12.83,12.83,0,0,1-3.61-.84,4.54,4.54,0,0,1-2.4-1.42,5.47,5.47,0,0,1-.91-2.78q-.2-1.93-.53-5.51t-.61-8.15q-.28-4.57-.54-9.8T78.57,89.3q-.15-5.21-.19-10.08t.06-8.67a3.49,3.49,0,0,1,1.28-3A5.63,5.63,0,0,1,83.18,67q2.75.3,5.35.63A41.21,41.21,0,0,1,94,68.73a6.82,6.82,0,0,1,3.51,1.73,10.5,10.5,0,0,1,2.07,3.81q.72,2,1.86,5T104,85.95q1.38,3.57,2.86,7.34t2.91,7.22Q109.52,91,110,81.7Z"/><path d="M175,74.1a4.08,4.08,0,0,1-2.36.78q-5.06.25-7.76-1.49a9,9,0,0,1-3.75-5.26,9.48,9.48,0,0,1-.44-1.34,10.15,10.15,0,0,1-.24-1.45q-.15-.77-.35-1.46l-.41-1.38q-.54-1.28-1-2.15a1.47,1.47,0,0,0-1.17-.94q-1.49-.15-3.12,1.8a21.6,21.6,0,0,0-3.06,5.29,56.35,56.35,0,0,0-2.58,7.61,60.68,60.68,0,0,0-1.67,8.74,37.59,37.59,0,0,0-.39,7.26,34.74,34.74,0,0,0,.88,6.65,16.52,16.52,0,0,0,2,5,4.16,4.16,0,0,0,2.83,2.19,3.55,3.55,0,0,0,2.6-.72,9.18,9.18,0,0,0,2.31-2.56,22.37,22.37,0,0,0,1.94-3.91A44.87,44.87,0,0,0,160.79,92q-4.18,1-6.79-.22a11.46,11.46,0,0,1-4.72-5,1.79,1.79,0,0,1-.24-1.45,2.21,2.21,0,0,1,.93-1.05,8.74,8.74,0,0,1,1.8-.86l2.46-.87a55.44,55.44,0,0,1,5.24-1.92q2.75-.86,4.72-1.6a10.17,10.17,0,0,1,3.87-.71,5.75,5.75,0,0,1,3.09,1.26,24.9,24.9,0,0,1,1.95,1.59l1.72,1.56a5.43,5.43,0,0,1,1.79,2.65,9.18,9.18,0,0,1,0,3.21,45.2,45.2,0,0,1-3.93,11.77,27.09,27.09,0,0,1-6,8,16.63,16.63,0,0,1-5,2.89,20.28,20.28,0,0,1-5.9,1.17,39.24,39.24,0,0,1-11.11-.92,16.63,16.63,0,0,1-4.06-2,13.42,13.42,0,0,1-3.4-3.1,22.23,22.23,0,0,1-4-6.93,38.9,38.9,0,0,1-2.09-9,53.09,53.09,0,0,1-.19-10.06,54.81,54.81,0,0,1,1.76-10.33,52.34,52.34,0,0,1,3.73-9.79A35.48,35.48,0,0,1,142.15,52,10.81,10.81,0,0,1,144.6,50a13.91,13.91,0,0,1,2.84-1.35,21.89,21.89,0,0,1,2.95-.79,17,17,0,0,1,2.78-.32,28,28,0,0,1,3.86,0,38.54,38.54,0,0,1,3.91.45,25.35,25.35,0,0,1,3.67.9,18.74,18.74,0,0,1,3.22,1.38,11.24,11.24,0,0,1,4.17,3.5,18.59,18.59,0,0,1,2.31,4.8q.35,1.46.67,3.3t.49,3.7q.18,1.86.26,3.6t0,2.91A3.76,3.76,0,0,1,175,74.1Z"/><path d="M220.41,114a5,5,0,0,1,.46,2.9q-.37,3.35-.73,7.66t-.64,9.06q-.27,4.76-.47,9.72t-.36,9.7q-.17,4.74-.26,8.95t-.1,7.5a2.6,2.6,0,0,1-.65,1.73,3.91,3.91,0,0,1-2.44.4q-1.92-.14-3.67-.3a17.72,17.72,0,0,1-3.37-.65,4.53,4.53,0,0,1-2.49-1.37,5.1,5.1,0,0,1-.87-2.78q-.34-2.49-.65-6.48t-.55-8.76q-.24-4.77-.4-10.06T203,130.85q-.08-5.09,0-9.66t.18-8a3.74,3.74,0,0,1,1.23-2.83,5.28,5.28,0,0,1,3.3-.46,31.16,31.16,0,0,1,5,.77,30.35,30.35,0,0,1,4.89,1.52A6.33,6.33,0,0,1,220.41,114Z"/><path d="M259,116.11q.37-9.32,1-17.24A3.6,3.6,0,0,1,261.21,96a5.73,5.73,0,0,1,3.42-.58l2,.13a10.89,10.89,0,0,1,1.76.25q.87.2,1.88.51t2.35.86q2.28.88,2.78,2.13a6.74,6.74,0,0,1,.28,3.19q-.62,5.51-1.12,12.46t-.91,14.09q-.42,7.15-.76,14T272.38,155q.09,2.75-3.87,2.63a47.38,47.38,0,0,1-7-.56,7.57,7.57,0,0,1-5.17-3.38q-1.4-2-3-4.68t-3.26-5.83q-1.69-3.14-3.44-6.56t-3.36-6.9q.06,4.51.09,9t0,8.63q0,4.11.08,7.64t.19,6.12a2.15,2.15,0,0,1-.63,1.69,4.13,4.13,0,0,1-2.49.29l-3.58-.23a12.83,12.83,0,0,1-3.62-.8,4.54,4.54,0,0,1-2.42-1.4,5.47,5.47,0,0,1-.93-2.77q-.22-1.93-.58-5.5t-.68-8.14q-.33-4.57-.63-9.79t-.5-10.44q-.19-5.21-.29-10.08t0-8.67a3.49,3.49,0,0,1,1.25-3,5.63,5.63,0,0,1,3.45-.62q2.75.28,5.36.58a41.2,41.2,0,0,1,5.52,1.06,6.82,6.82,0,0,1,3.53,1.69,10.51,10.51,0,0,1,2.11,3.79q.74,2,1.91,5t2.58,6.61q1.41,3.56,2.93,7.31t3,7.19Q258.64,125.44,259,116.11Z"/><path d="M324.1,108.57a4.08,4.08,0,0,1-2.36.79q-5.06.25-7.76-1.48a9,9,0,0,1-3.75-5.25,9.48,9.48,0,0,1-.44-1.34,10.15,10.15,0,0,1-.24-1.45q-.15-.77-.36-1.46L308.76,97q-.54-1.28-1-2.15a1.47,1.47,0,0,0-1.17-.94q-1.49-.15-3.11,1.81a21.63,21.63,0,0,0-3.06,5.3,56.35,56.35,0,0,0-2.57,7.61,60.68,60.68,0,0,0-1.66,8.74,37.59,37.59,0,0,0-.38,7.26,34.74,34.74,0,0,0,.89,6.65,16.52,16.52,0,0,0,2,5,4.16,4.16,0,0,0,2.83,2.18,3.55,3.55,0,0,0,2.59-.72,9.18,9.18,0,0,0,2.31-2.56,22.37,22.37,0,0,0,1.94-3.91,44.87,44.87,0,0,0,1.55-4.79q-4.17,1-6.79-.21a11.46,11.46,0,0,1-4.72-5,1.79,1.79,0,0,1-.24-1.45,2.21,2.21,0,0,1,.93-1.06,8.74,8.74,0,0,1,1.8-.86l2.46-.88a55.44,55.44,0,0,1,5.24-1.93q2.75-.86,4.72-1.61a10.17,10.17,0,0,1,3.87-.71A5.75,5.75,0,0,1,320.3,114a24.9,24.9,0,0,1,1.95,1.59l1.72,1.56a5.43,5.43,0,0,1,1.79,2.64,9.18,9.18,0,0,1,0,3.21,45.2,45.2,0,0,1-3.91,11.77,27.09,27.09,0,0,1-6,8,16.63,16.63,0,0,1-5,2.9,20.28,20.28,0,0,1-5.9,1.18,39.24,39.24,0,0,1-11.12-.91,16.62,16.62,0,0,1-4.06-1.95,13.42,13.42,0,0,1-3.41-3.09,22.23,22.23,0,0,1-4-6.92,38.9,38.9,0,0,1-2.11-9,53.12,53.12,0,0,1-.2-10.06,54.84,54.84,0,0,1,1.75-10.33,52.34,52.34,0,0,1,3.71-9.8,35.46,35.46,0,0,1,5.71-8.33,10.81,10.81,0,0,1,2.44-2.08,13.9,13.9,0,0,1,2.84-1.35,21.89,21.89,0,0,1,2.95-.79,17,17,0,0,1,2.78-.32,28,28,0,0,1,3.86,0,38.54,38.54,0,0,1,3.92.44,25.35,25.35,0,0,1,3.67.89,18.79,18.79,0,0,1,3.22,1.38,11.24,11.24,0,0,1,4.18,3.49,18.59,18.59,0,0,1,2.32,4.8q.36,1.46.68,3.3t.5,3.69q.18,1.86.26,3.6t0,2.91A3.76,3.76,0,0,1,324.1,108.57Z"/><path d="M218.39,96l-5.25-.23q1.46,2.12,3,4.14t3.34,4.42q.92,1.27.72,1.66t-1.54.85a8.59,8.59,0,0,1-4.11-.11q-2-.54-4.35-3.42a26.1,26.1,0,0,1-2-2.36q-.86-1.16-1.72-2.22l-2.07,4q-1,1.89-2.22,4-.62,1.1-1.13,1.09a3.61,3.61,0,0,1-1.69-1,11.77,11.77,0,0,1-1.58-1.45,4.78,4.78,0,0,1-1-1.71,5.25,5.25,0,0,1-.22-2.1,7.82,7.82,0,0,1,.74-2.57,16.67,16.67,0,0,0,.71-1.65,7.3,7.3,0,0,1,.72-1.46q-1.48,0-2.88,0T193,96a8.06,8.06,0,0,1-2.68-.22,6.13,6.13,0,0,1-2.11-1,7.83,7.83,0,0,1-1.64-1.69,18.32,18.32,0,0,1-1.34-2.18q-.73-1.28-.55-1.84t1.79-.62q2.48-.21,5.43-.39t6.31-.15q-1.66-2.3-3.35-4.84t-3.65-5.62q-1.54-2.52,1.14-3a9.07,9.07,0,0,1,4.93.49,9.25,9.25,0,0,1,4.2,3.86q1,1.42,1.7,2.63a24.31,24.31,0,0,0,1.57,2.4q1.31-2.44,2.82-4.93t3.34-5.23q1.6-2.36,3.54.08A10.75,10.75,0,0,1,217,78.35a5.9,5.9,0,0,1-1.08,4.74q-1,1.39-1.77,2.63t-1.47,2.46q1.25.09,2.48.26t2.46.32a10.49,10.49,0,0,1,5.28,1.86,8,8,0,0,1,2.44,3.63q.93,2.42-1.69,2.21T218.39,96Z"/><path d="M67.33,59.54l-5.25-.23q1.46,2.12,3,4.14t3.34,4.42q.92,1.27.72,1.66t-1.54.85a8.59,8.59,0,0,1-4.11-.11q-2-.54-4.35-3.42a26.1,26.1,0,0,1-2-2.36q-.86-1.16-1.72-2.22l-2.07,4q-1,1.89-2.22,4-.62,1.1-1.13,1.09a3.61,3.61,0,0,1-1.69-1,11.77,11.77,0,0,1-1.58-1.45,4.78,4.78,0,0,1-1-1.71,5.25,5.25,0,0,1-.22-2.1,7.82,7.82,0,0,1,.74-2.57A16.67,16.67,0,0,0,47,60.85a7.3,7.3,0,0,1,.72-1.46q-1.48,0-2.88,0t-2.89.1a8.06,8.06,0,0,1-2.68-.22,6.13,6.13,0,0,1-2.11-1,7.83,7.83,0,0,1-1.64-1.69,18.32,18.32,0,0,1-1.34-2.18q-.73-1.28-.55-1.84t1.79-.62q2.48-.21,5.43-.39t6.31-.15q-1.66-2.3-3.35-4.84t-3.65-5.62q-1.54-2.52,1.14-3a9.07,9.07,0,0,1,4.93.49,9.25,9.25,0,0,1,4.2,3.86q1,1.42,1.7,2.63a24.31,24.31,0,0,0,1.57,2.4q1.31-2.44,2.82-4.93t3.34-5.23q1.6-2.36,3.54.08a10.75,10.75,0,0,1,2.53,4.58,5.9,5.9,0,0,1-1.08,4.74q-1,1.39-1.77,2.63t-1.47,2.46q1.25.09,2.48.26t2.46.32a10.49,10.49,0,0,1,5.28,1.86,8,8,0,0,1,2.44,3.63q.93,2.42-1.69,2.21T67.33,59.54Z"/></g></g></svg>